<svg width="183" height="20" xmlns="http://www.w3.org/2000/svg" xmlns:xlink="http://www.w3.org/1999/xlink"><defs><path id="a" d="M.18.126h25.942v19.856H.18z"/></defs><g fill="none" fill-rule="evenodd"><path d="M14.103 17.13c0-.76.61-1.37 1.371-1.37.762 0 1.372.61 1.372 1.37 0 .762-.61 1.373-1.372 1.373-.76 0-1.371-.611-1.371-1.372zm5.58 0c0-.76.611-1.37 1.373-1.37.76 0 1.371.61 1.371 1.37 0 .762-.61 1.373-1.371 1.373-.762 0-1.372-.611-1.372-1.372zm-12.937 0c0-.76.61-1.37 1.372-1.37.76 0 1.372.61 1.372 1.37 0 .762-.611 1.373-1.372 1.373-.761 0-1.372-.611-1.372-1.372zm-5.58 0c0-.76.61-1.37 1.37-1.37.762 0 1.372.61 1.372 1.37 0 .762-.61 1.373-1.371 1.373s-1.372-.611-1.372-1.372zm10.09 2.378h1.193v-4.8h-1.193v4.8zm-7.357 0h1.193v-4.801H3.9v.385a2.464 2.464 0 00-1.418-.442A2.478 2.478 0 000 17.13a2.472 2.472 0 002.48 2.481c.527 0 1.015-.16 1.42-.441v.338zm18.519 0h1.193v-4.801h-1.193v.385a2.463 2.463 0 00-1.419-.442 2.478 2.478 0 00-2.48 2.48 2.472 2.472 0 002.48 2.481c.526 0 1.015-.16 1.419-.441v.338zm1.635-1.56c.037.968.864 1.654 2.245 1.654 1.128 0 2.058-.489 2.058-1.57 0-.75-.423-1.192-1.4-1.38l-.761-.15c-.489-.095-.827-.189-.827-.48 0-.319.329-.46.742-.46.602 0 .846.3.865.658h1.202c-.066-.94-.817-1.57-2.03-1.57-1.249 0-1.99.686-1.99 1.579 0 1.09.882 1.268 1.643 1.41l.63.112c.45.085.648.216.648.48 0 .234-.225.469-.761.469-.78 0-1.034-.404-1.043-.752h-1.221zM9.48 13.072v2.02a2.464 2.464 0 00-1.419-.442 2.478 2.478 0 00-2.48 2.48 2.472 2.472 0 002.48 2.481c.526 0 1.015-.16 1.419-.441v.338h1.193v-6.436H9.48zm7.357 0v2.02a2.464 2.464 0 00-1.419-.442 2.478 2.478 0 00-2.48 2.48 2.472 2.472 0 002.48 2.481c.526 0 1.015-.16 1.419-.441v.338h1.193v-6.436h-1.193zM3.1 11.653l.807 1.42H9.48L7.272 9.256 3.1 11.653zm9.348 2.612v-1.193h4.388l-4.68-8.099-4.18 2.396 3.279 5.703v1.193h1.193zm6.164-1.193h5.58L16.978.585l-4.172 2.406 5.807 10.081zM40.288 5.387v3.925h1.837c1.726 0 2.477-.78 2.477-1.921 0-1.197-.612-2.004-2.477-2.004h-1.837zm0 14.223h-5.484V.544h8.63c3.924 0 6.763 2.254 6.763 6.596 0 2.644-1.503 4.871-4.064 5.873l5.4 6.597h-6.959l-4.286-5.873v5.873zM51.477 11.789V.544h5.483v10.604c0 2.534.92 3.814 2.979 3.814 2.032 0 2.95-1.28 2.95-3.814V.544h5.484v11.245c0 4.787-2.895 8.155-8.434 8.155-5.54 0-8.462-3.368-8.462-8.155M75.498 9.618v9.992H70.18V.544h6.207l6.013 10.187V.544h5.316V19.61H81.51l-6.012-9.992M94.397 19.61V5.387h-5.289V.544h16.06v4.843H99.88V19.61h-5.483M112.545 5.916L110.54 12.4h3.98l-1.976-6.485zm3.34 10.91h-6.68l-.864 2.784h-5.538L109.205.544h7.014l6.374 19.066h-5.845l-.863-2.783zM122.565 13.542h5.428c.083 1.086.723 2.143 2.727 2.143 1.336 0 2.2-.445 2.2-1.28 0-.863-1.197-1.225-2.812-1.614-3.006-.724-7.32-1.615-7.32-6.402 0-3.758 2.922-6.208 7.404-6.208 4.704 0 7.487 2.534 7.793 6.598h-5.344c-.056-.975-.39-2.2-2.533-2.2-1.336 0-1.92.585-1.92 1.253 0 1.197 1.53 1.559 3.423 1.976 2.978.668 6.82 1.504 6.82 6.013 0 3.507-2.728 6.15-7.85 6.15-4.954 0-7.738-2.281-8.016-6.429M144.136 19.61V5.387h-5.288V.544h16.06v4.843h-5.288V19.61h-5.484" fill="#000"/><g transform="translate(156.12)"><mask id="b" fill="#fff"><use xlink:href="#a"/></mask><path fill="#151918" mask="url(#b)" d="M.18 19.61h5.484V.544H.18zM12.79 10.063c0 2.839 2.059 4.815 4.759 4.815 2.087 0 3.563-1.169 4.425-2.644l4.148 3.006C24.396 17.968 21.64 20 17.326 20c-5.567 0-10.132-4.203-10.132-9.937 0-5.901 4.649-9.937 10.216-9.937 3.98 0 6.847 1.782 8.684 4.76L21.807 7.92c-.974-1.698-2.393-2.644-4.397-2.644-2.59 0-4.62 2.06-4.62 4.787"/></g></g></svg>